<?xml version="1.0" standalone="no"?>
<!DOCTYPE svg PUBLIC "-//W3C//DTD SVG 20010904//EN"
 "http://www.w3.org/TR/2001/REC-SVG-20010904/DTD/svg10.dtd">
<svg version="1.0" xmlns="http://www.w3.org/2000/svg"
 width="980.000000pt" height="980.000000pt" viewBox="0 0 980.000000 980.000000"
 preserveAspectRatio="xMidYMid meet">
<metadata>
Created by potrace 1.15, written by Peter Selinger 2001-2017
</metadata>
<g transform="translate(0.000000,980.000000) scale(0.100000,-0.100000)"
fill="#000000" stroke="none">
<path d="M4560 9789 c-1035 -75 -1998 -463 -2800 -1128 -150 -123 -501 -475
-622 -621 -881 -1068 -1270 -2403 -1098 -3765 119 -934 501 -1801 1124 -2545
98 -117 370 -393 496 -504 1328 -1166 3158 -1531 4825 -962 895 305 1700 879
2281 1627 540 695 884 1519 993 2384 179 1408 -247 2798 -1185 3865 -112 128
-386 398 -509 501 -763 642 -1665 1026 -2665 1134 -174 19 -664 27 -840 14z
m625 -699 c930 -69 1765 -413 2462 -1015 129 -111 342 -325 448 -449 816 -960
1158 -2219 939 -3456 -57 -321 -153 -636 -290 -951 l-47 -107 -102 78 c-473
360 -1046 613 -1797 795 -101 24 -205 47 -233 50 -91 12 -91 13 -43 53 348
293 631 768 752 1262 58 237 70 346 70 600 0 308 -34 521 -126 788 -275 801
-938 1403 -1758 1596 -202 48 -319 61 -560 60 -241 0 -356 -12 -560 -60 -762
-178 -1401 -711 -1704 -1421 -182 -426 -232 -919 -140 -1373 73 -356 252 -730
500 -1040 83 -103 285 -307 372 -374 34 -27 62 -52 62 -56 0 -4 -42 -13 -92
-19 -201 -27 -590 -126 -883 -224 -242 -81 -459 -171 -670 -277 -227 -114
-349 -189 -538 -331 l-142 -107 -33 72 c-397 856 -478 1893 -222 2828 141 514
387 1012 707 1430 245 319 566 632 888 864 794 573 1778 854 2740 784z m-100
-1400 c439 -51 844 -261 1126 -584 324 -371 479 -854 429 -1335 -69 -655 -487
-1240 -1052 -1470 -207 -85 -439 -121 -651 -102 -259 24 -486 86 -717 197
-485 233 -846 637 -994 1114 -59 193 -71 270 -70 490 0 172 3 210 27 321 95
448 349 822 734 1079 340 228 772 335 1168 290z m195 -4200 c546 -28 996 -94
1465 -215 520 -134 984 -331 1304 -553 109 -76 270 -207 277 -227 3 -8 -35
-67 -87 -135 -915 -1202 -2376 -1814 -3874 -1625 -1120 142 -2133 734 -2826
1652 -38 50 -69 96 -69 102 0 13 132 126 235 201 448 324 1148 579 1945 710
296 48 535 72 940 93 139 8 513 6 690 -3z"/>
</g>
</svg>
